<?xml version="1.0" encoding="UTF-8" standalone="no"?>
<!-- Created with Inkscape (http://www.inkscape.org/) -->

<svg
   width="100mm"
   height="100mm"
   viewBox="0 0 100 100"
   version="1.1"
   id="svg5"
   inkscape:version="1.1.1 (3bf5ae0d25, 2021-09-20)"
   sodipodi:docname="mplayer.svg"
   inkscape:export-filename="C:\Users\Vexu\Documents\mplayer.png"
   inkscape:export-xdpi="96"
   inkscape:export-ydpi="96"
   xmlns:inkscape="http://www.inkscape.org/namespaces/inkscape"
   xmlns:sodipodi="http://sodipodi.sourceforge.net/DTD/sodipodi-0.dtd"
   xmlns:xlink="http://www.w3.org/1999/xlink"
   xmlns="http://www.w3.org/2000/svg"
   xmlns:svg="http://www.w3.org/2000/svg">
  <sodipodi:namedview
     id="namedview7"
     pagecolor="#ffffff"
     bordercolor="#666666"
     borderopacity="1.0"
     inkscape:pageshadow="2"
     inkscape:pageopacity="0.0"
     inkscape:pagecheckerboard="0"
     inkscape:document-units="mm"
     showgrid="false"
     width="100mm"
     inkscape:snap-nodes="false"
     inkscape:zoom="1.466344"
     inkscape:cx="66.491901"
     inkscape:cy="185.49536"
     inkscape:window-width="1920"
     inkscape:window-height="1009"
     inkscape:window-x="-8"
     inkscape:window-y="-8"
     inkscape:window-maximized="1"
     inkscape:current-layer="layer1" />
  <defs
     id="defs2">
    <linearGradient
       inkscape:collect="always"
       id="linearGradient17811">
      <stop
         style="stop-color:#c98cfc;stop-opacity:1;"
         offset="0"
         id="stop17807" />
      <stop
         style="stop-color:#f94463;stop-opacity:1"
         offset="1"
         id="stop17809" />
    </linearGradient>
    <linearGradient
       inkscape:collect="always"
       xlink:href="#linearGradient17811"
       id="linearGradient17813"
       x1="287.72989"
       y1="115.1234"
       x2="236.47763"
       y2="64.456139"
       gradientUnits="userSpaceOnUse" />
  </defs>
  <g
     inkscape:label="图层 1"
     inkscape:groupmode="layer"
     id="layer1">
    <g
       id="g4989"
       transform="matrix(1.3292333,-0.82254924,0.82254924,1.3292333,-35.32406,0.06640763)">
      <circle
         style="fill:#000000;fill-opacity:1;fill-rule:evenodd;stroke-width:0.264583"
         id="path2078"
         cx="24.629707"
         cy="23.186209"
         r="4.6011543" />
      <path
         id="path2179"
         style="fill:#000000;fill-opacity:1;stroke:#000000;stroke-width:0.292816px;stroke-linecap:butt;stroke-linejoin:miter;stroke-opacity:1"
         d="m 24.615321,26.704493 c 0,0 -7.516102,0.837063 -11.049935,6.496062 -3.533832,5.659001 -3.259488,21.71749 -6.1642366,27.610411 -2.9047489,5.892922 -8.7271698,11.364135 -8.7271698,11.364135 h 0.305073 c 0,0 12.6145094,-4.330499 26.4777514,-4.330499 13.863243,0 26.477752,4.330499 26.477752,4.330499 0,0 -6.500063,-5.688256 -9.723732,-11.728482 C 38.987156,54.406393 38.90219,37.850663 35.223257,32.298368 31.544325,26.746075 24.615321,26.704493 24.615321,26.704493 Z"
         sodipodi:nodetypes="czzcczczzc" />
    </g>
    <path
       id="path4905"
       inkscape:transform-center-x="-3.7595343"
       d="M 270.05942,81.836189 233.23313,103.09785 V 60.574525 Z"
       transform="matrix(0.61253042,0,0,0.61253042,-77.724479,32.152311)"
       style="fill:url(#linearGradient17813);fill-opacity:1" />
    <path
       style="fill:none;stroke:#000000;stroke-width:2.56684;stroke-linecap:round;stroke-linejoin:miter;stroke-miterlimit:4;stroke-dasharray:none;stroke-opacity:1"
       d="m 29.375157,94.924912 c 0,0 8.023789,1.662566 17.213878,-0.771923 9.190091,-2.434488 14.434957,-6.020997 14.434957,-6.020997"
       id="path5024"
       sodipodi:nodetypes="czc" />
    <path
       style="fill:none;stroke:#000000;stroke-width:2.3886;stroke-linecap:round;stroke-linejoin:miter;stroke-miterlimit:4;stroke-dasharray:none;stroke-opacity:1"
       d="m 89.300655,58.337373 c 0,0 0.868417,3.629725 -1.508477,8.835367 -2.376893,5.205642 -5.818411,7.111393 -5.818411,7.111393"
       id="path5348"
       sodipodi:nodetypes="czc" />
  </g>
</svg>
